ffmpeg version 2.8.11-0ubuntu0.16.04.1 Copyright (c) 2000-2017 the FFmpeg developers
  built with gcc 5.4.0 (Ubuntu 5.4.0-6ubuntu1~16.04.4) 20160609
  configuration: --prefix=/usr --extra-version=0ubuntu0.16.04.1 --build-suffix=-ffmpeg --toolchain=hardened --libdir=/usr/lib/x86_64-linux-gnu --incdir=/usr/include/x86_64-linux-gnu --cc=cc --cxx=g++ --enable-gpl --enable-shared --disable-stripping --disable-decoder=libopenjpeg --disable-decoder=libschroedinger --enable-avresample --enable-avisynth --enable-gnutls --enable-ladspa --enable-libass --enable-libbluray --enable-libbs2b --enable-libcaca --enable-libcdio --enable-libflite --enable-libfontconfig --enable-libfreetype --enable-libfribidi --enable-libgme --enable-libgsm --enable-libmodplug --enable-libmp3lame --enable-libopenjpeg --enable-libopus --enable-libpulse --enable-librtmp --enable-libschroedinger --enable-libshine --enable-libsnappy --enable-libsoxr --enable-libspeex --enable-libssh --enable-libtheora --enable-libtwolame --enable-libvorbis --enable-libvpx --enable-libwavpack --enable-libwebp --enable-libx265 --enable-libxvid --enable-libzvbi --enable-openal --enable-opengl --enable-x11grab --enable-libdc1394 --enable-libiec61883 --enable-libzmq --enable-frei0r --enable-libx264 --enable-libopencv
  libavutil      54. 31.100 / 54. 31.100
  libavcodec     56. 60.100 / 56. 60.100
  libavformat    56. 40.101 / 56. 40.101
  libavdevice    56.  4.100 / 56.  4.100
  libavfilter     5. 40.101 /  5. 40.101
  libavresample   2.  1.  0 /  2.  1.  0
  libswscale      3.  1.101 /  3.  1.101
  libswresample   1.  2.101 /  1.  2.101
  libpostproc    53.  3.100 / 53.  3.100
[mp3 @ 0x23f58c0] Unknown attached picture mimetype: ('image/png', None), skipping.
[mp3 @ 0x23f58c0] Skipping 0 bytes of junk at 17522.
Input #0, mp3, from 'adam-mickiewicz-sonety-krymskie-burza.mp3':
  Metadata:
    title           : Adam Mickiewicz, Sonety krymskie, Burza
    artist          : Jan Dravnel
    album           : Wolne Lektury
    encoder         : Lavf53.21.0
    genre           : Speech
    originator_reference: cu4h1bqwHFeaaaGk
    date            : 2008-10-16
    performer       : Sebastian Buttny
    album_artist    : Fundacja Nowoczesna Polska
    time_reference  : 745051940
    copyright       : 2008 Fundacja Nowoczesna Polska. Licensed to the public under http://creativecommons.org/licenses/by-sa/3.0/deed.pl verify at http://wolnelektury.pl/katalog/lektura/sonety-krymskie-burza/
    creation_time   : 0009-57-48
    encoded_by      : Pro Tools
    publisher       : Fundacja Nowoczesna Polska
  Duration: 00:01:28.22, start: 0.000000, bitrate: 65 kb/s
    Stream #0:0: Audio: mp3, 44100 Hz, mono, s16p, 64 kb/s
Output #0, null, to 'pipe:':
  Metadata:
    title           : Adam Mickiewicz, Sonety krymskie, Burza
    artist          : Jan Dravnel
    album           : Wolne Lektury
    publisher       : Fundacja Nowoczesna Polska
    genre           : Speech
    originator_reference: cu4h1bqwHFeaaaGk
    date            : 2008-10-16
    performer       : Sebastian Buttny
    album_artist    : Fundacja Nowoczesna Polska
    time_reference  : 745051940
    copyright       : 2008 Fundacja Nowoczesna Polska. Licensed to the public under http://creativecommons.org/licenses/by-sa/3.0/deed.pl verify at http://wolnelektury.pl/katalog/lektura/sonety-krymskie-burza/
    encoded_by      : Pro Tools
    encoder         : Lavf56.40.101
    Stream #0:0: Audio: pcm_s16le, 44100 Hz, mono, s16, 705 kb/s
    Metadata:
      encoder         : Lavc56.60.100 pcm_s16le
Stream mapping:
  Stream #0:0 -> #0:0 (mp3 (native) -> pcm_s16le (native))
Press [q] to stop, [?] for help
[silencedetect @ 0x2408a80] silence_start: -0.00367347
[silencedetect @ 0x2408a80] silence_end: 0.705306 | silence_duration: 0.70898
[silencedetect @ 0x2408a80] silence_start: 1.69429
[silencedetect @ 0x2408a80] silence_end: 2.69061 | silence_duration: 0.996327
[silencedetect @ 0x2408a80] silence_start: 3.75796
[silencedetect @ 0x2408a80] silence_end: 4.54531 | silence_duration: 0.787347
[silencedetect @ 0x2408a80] silence_start: 5.06408
[silencedetect @ 0x2408a80] silence_end: 7.23592 | silence_duration: 2.17184
[silencedetect @ 0x2408a80] silence_start: 8.14653
[silencedetect @ 0x2408a80] silence_end: 9.53469 | silence_duration: 1.38816
[silencedetect @ 0x2408a80] silence_start: 10.3931
[silencedetect @ 0x2408a80] silence_end: 12.1208 | silence_duration: 1.72776
[silencedetect @ 0x2408a80] silence_start: 12.6918
[silencedetect @ 0x2408a80] silence_end: 14.1584 | silence_duration: 1.46653
[silencedetect @ 0x2408a80] silence_start: 14.9384
[silencedetect @ 0x2408a80] silence_end: 16.5355 | silence_duration: 1.59714
[silencedetect @ 0x2408a80] silence_start: 18.0208
[silencedetect @ 0x2408a80] silence_end: 19.6441 | silence_duration: 1.62327
[silencedetect @ 0x2408a80] silence_start: 21.051
[silencedetect @ 0x2408a80] silence_end: 22.6482 | silence_duration: 1.59714
[silencedetect @ 0x2408a80] silence_start: 25.0216
[silencedetect @ 0x2408a80] silence_end: 26.9061 | silence_duration: 1.88449
[silencedetect @ 0x2408a80] silence_start: 28.4437
[silencedetect @ 0x2408a80] silence_end: 29.7273 | silence_duration: 1.28367
[silencedetect @ 0x2408a80] silence_start: 30.9776
[silencedetect @ 0x2408a80] silence_end: 33.0449 | silence_duration: 2.06735
[silencedetect @ 0x2408a80] silence_start: 34.6347
[silencedetect @ 0x2408a80] silence_end: 36.2318 | silence_duration: 1.59714
[silencedetect @ 0x2408a80] silence_start: 40.3816
[silencedetect @ 0x2408a80] silence_end: 41.4563 | silence_duration: 1.07469
[silencedetect @ 0x2408a80] silence_start: 43.1245
[silencedetect @ 0x2408a80] silence_end: 43.8073 | silence_duration: 0.682857
[silencedetect @ 0x2408a80] silence_start: 45.0314
[silencedetect @ 0x2408a80] silence_end: 46.4196 | silence_duration: 1.38816
[silencedetect @ 0x2408a80] silence_start: 47.1735
[silencedetect @ 0x2408a80] silence_end: 47.9608 | silence_duration: 0.787347
[silencedetect @ 0x2408a80] silence_start: 49.7073
[silencedetect @ 0x2408a80] silence_end: 52.2449 | silence_duration: 2.53755
[silencedetect @ 0x2408a80] silence_start: 53.5735
[silencedetect @ 0x2408a80] silence_end: 55.0661 | silence_duration: 1.49265
[silencedetect @ 0x2408a80] silence_start: 56.1335
[silencedetect @ 0x2408a80] silence_end: 57.5216 | silence_duration: 1.38816
[silencedetect @ 0x2408a80] silence_start: 59.9996
[silencedetect @ 0x2408a80] silence_end: 61.5184 | silence_duration: 1.51878
[silencedetect @ 0x2408a80] silence_start: 64.3098
[silencedetect @ 0x2408a80] silence_end: 68.1012 | silence_duration: 3.79143
[silencedetect @ 0x2408a80] silence_start: 70.8665
[silencedetect @ 0x2408a80] silence_end: 72.1763 | silence_duration: 1.3098
[silencedetect @ 0x2408a80] silence_start: 72.9041
[silencedetect @ 0x2408a80] silence_end: 75.8596 | silence_duration: 2.95551
[silencedetect @ 0x2408a80] silence_start: 76.6135
[silencedetect @ 0x2408a80] silence_end: 77.5576 | silence_duration: 0.944082
[silencedetect @ 0x2408a80] silence_start: 78.651
[silencedetect @ 0x2408a80] silence_end: 80.8751 | silence_duration: 2.22408
[silencedetect @ 0x2408a80] silence_start: 82.0469
[silencedetect @ 0x2408a80] silence_end: 84.271 | silence_duration: 2.22408
[silencedetect @ 0x2408a80] silence_start: 85.8086
size=N/A time=00:01:28.21 bitrate=N/A    
video:0kB audio:7598kB subtitle:0kB other streams:0kB global headers:0kB muxing overhead: unknown
